<svg xmlns="http://www.w3.org/2000/svg" viewBox="0 0 1080 527.32"><g id="Ebene_12" data-name="Ebene 12"><polygon points="467.65 413.45 467.65 472.71 585.69 472.71 521.13 366.4 467.65 413.45"/><path d="M745.53,277.53V226.46l7.17-7-65.1-18.1a21.73,21.73,0,0,1,7.49,17c0,15.28-12.47,23.73-27.75,23.73s-27.75-8.45-27.75-23.73c0-14.16,10.72-22.45,24.46-23.58l-463.82-129V327c13.27-27.35,42.23-54.29,84-54.29,56.7,0,82.84,44.64,82.84,103,0,44.07-14.14,80.74-44.18,97.06h70.72V277.53h16.49V472.71h41V195.49h16.49V391.33l129.89-113.8h25.34l-74,65.14,79,130H659.3V277.53h16.48V472.71H777.49c-26-8.89-33.57-28.87-33.57-62.07V315.73h-35v-38.2ZM401.7,242.14c-15.28,0-27.74-8.45-27.74-23.73s12.46-23.72,27.74-23.72,27.75,8.44,27.75,23.72S417,242.14,401.7,242.14Z"/><path d="M350.63,375.65c0-41.42-20.1-66.35-75.2-66.35-53.88,0-74.39,24.93-74.39,66.35,0,42.63,20.51,68,74.39,68C330.53,443.61,350.63,418.28,350.63,375.65Z"/><path d="M760.4,315.73v90.88c.81,29,13.27,39.82,78,37.81v28.29H954l20.27-157Z"/><polygon points="760.4 221.61 760.4 277.53 961.52 277.53 760.4 221.61"/><polygon points="183.74 61.3 136.68 48.22 104.5 266.25 183.74 379.96 183.74 61.3"/></g></svg>